<svg width="177" height="197" viewBox="0 0 177 197" fill="none" xmlns="http://www.w3.org/2000/svg">
<path d="M157.042 0.583496H59.125C48.3248 0.583496 39.5417 9.36662 39.5417 20.1668V78.9168H19.9583C9.15812 78.9168 0.375 87.7 0.375 98.5002V186.625C0.375 189.222 1.40662 191.713 3.24291 193.549C5.07921 195.385 7.56976 196.417 10.1667 196.417H166.833C169.43 196.417 171.921 195.385 173.757 193.549C175.593 191.713 176.625 189.222 176.625 186.625V20.1668C176.625 9.36662 167.842 0.583496 157.042 0.583496ZM19.9583 98.5002H78.7083V176.834H19.9583V98.5002ZM157.042 176.834H98.2917V98.5002C98.2917 87.7 89.5085 78.9168 78.7083 78.9168H59.125V20.1668H157.042V176.834Z" fill="black"/>
<path d="M78.7082 39.75H98.2915V59.3333H78.7082V39.75ZM117.875 39.75H137.458V59.3333H117.875V39.75ZM117.875 79.2202H137.458V98.5H117.875V79.2202ZM117.875 118.083H137.458V137.667H117.875V118.083ZM39.5415 118.093H59.1248V137.676H39.5415V118.093Z" fill="black"/>
</svg>
