<svg width="849" height="897" viewBox="0 0 849 897" fill="none" xmlns="http://www.w3.org/2000/svg">
<path d="M837.8 562.7L772.3 506.7C775.4 487.7 777 468.3 777 448.9C777 429.5 775.4 410.1 772.3 391.1L837.8 335.1C842.74 330.871 846.276 325.238 847.938 318.95C849.599 312.662 849.307 306.018 847.1 299.9L846.2 297.3C828.168 246.903 801.166 200.184 766.5 159.4L764.7 157.3C760.495 152.355 754.89 148.801 748.624 147.105C742.358 145.409 735.725 145.651 729.6 147.8L648.3 176.7C618.3 152.1 584.8 132.7 548.6 119.1L532.9 34.1001C531.716 27.7043 528.613 21.8203 524.005 17.2299C519.396 12.6394 513.5 9.55977 507.1 8.4001L504.4 7.9001C452.3 -1.4999 397.5 -1.4999 345.4 7.9001L342.7 8.4001C336.3 9.55977 330.404 12.6394 325.795 17.2299C321.187 21.8203 318.085 27.7043 316.9 34.1001L301.1 119.5C265.189 133.103 231.747 152.493 202.1 176.9L120.2 147.8C114.077 145.634 107.439 145.383 101.17 147.08C94.8999 148.777 89.2952 152.342 85.1 157.3L83.3 159.4C48.6746 200.212 21.6776 246.924 3.60001 297.3L2.70001 299.9C-1.79999 312.4 1.90001 326.4 12 335.1L78.3 391.7C75.2 410.5 73.7 429.7 73.7 448.8C73.7 468 75.2 487.2 78.3 505.9L12 562.5C7.05958 566.729 3.52365 572.363 1.86241 578.65C0.201158 584.938 0.493304 591.582 2.70001 597.7L3.60001 600.3C21.7 650.7 48.5 697.2 83.3 738.2L85.1 740.3C89.3054 745.245 94.9104 748.799 101.176 750.495C107.442 752.191 114.075 751.949 120.2 749.8L202.1 720.7C231.9 745.2 265.2 764.6 301.1 778.1L316.9 863.5C318.085 869.896 321.187 875.78 325.795 880.37C330.404 884.961 336.3 888.04 342.7 889.2L345.4 889.7C397.979 899.15 451.821 899.15 504.4 889.7L507.1 889.2C513.5 888.04 519.396 884.961 524.005 880.37C528.613 875.78 531.716 869.896 532.9 863.5L548.6 778.5C584.785 764.936 618.474 745.473 648.3 720.9L729.6 749.8C735.723 751.966 742.361 752.217 748.63 750.52C754.9 748.823 760.505 745.259 764.7 740.3L766.5 738.2C801.3 697.1 828.1 650.7 846.2 600.3L847.1 597.7C851.6 585.4 847.9 571.4 837.8 562.7V562.7ZM701.3 402.9C703.8 418 705.1 433.5 705.1 449C705.1 464.5 703.8 480 701.3 495.1L694.7 535.2L769.4 599.1C758.076 625.189 743.781 649.885 726.8 672.7L634 639.8L602.6 665.6C578.7 685.2 552.1 700.6 523.3 711.4L485.2 725.7L467.3 822.7C439.057 825.9 410.543 825.9 382.3 822.7L364.4 725.5L326.6 711C298.1 700.2 271.6 684.8 247.9 665.3L216.5 639.4L123.1 672.6C106.1 649.7 91.9 625 80.5 599L156 534.5L149.5 494.5C147.1 479.6 145.8 464.2 145.8 449C145.8 433.7 147 418.4 149.5 403.5L156 363.5L80.5 299C91.8 272.9 106.1 248.3 123.1 225.4L216.5 258.6L247.9 232.7C271.6 213.2 298.1 197.8 326.6 187L364.5 172.7L382.4 75.5001C410.5 72.3001 439.2 72.3001 467.4 75.5001L485.3 172.5L523.4 186.8C552.1 197.6 578.8 213 602.7 232.6L634.1 258.4L726.9 225.5C743.9 248.4 758.1 273.1 769.5 299.1L694.8 363L701.3 402.9ZM425 263C327.8 263 249 341.8 249 439C249 536.2 327.8 615 425 615C522.2 615 601 536.2 601 439C601 341.8 522.2 263 425 263ZM504.2 518.2C493.812 528.618 481.467 536.879 467.875 542.508C454.283 548.137 439.712 551.023 425 551C395.1 551 367 539.3 345.8 518.2C335.382 507.812 327.121 495.467 321.492 481.875C315.863 468.283 312.977 453.712 313 439C313 409.1 324.7 381 345.8 359.8C367 338.6 395.1 327 425 327C454.9 327 483 338.6 504.2 359.8C514.618 370.188 522.879 382.533 528.508 396.125C534.137 409.717 537.023 424.288 537 439C537 468.9 525.3 497 504.2 518.2Z" fill="black"/>
</svg>
