<svg width="266" height="34" viewBox="0 0 266 34" fill="none" xmlns="http://www.w3.org/2000/svg">
<path d="M3.565 34C2.49833 34 1.59167 33.6 0.845 32.8C0.15167 32 -0.115 31.0667 0.0449996 30L3.405 4.32C3.565 3.1467 4.045 2.2133 4.845 1.52C5.645 0.7733 6.605 0.400002 7.725 0.400002C10.0183 0.400002 11.5117 1.3867 12.205 3.36L17.645 19.04C17.9117 19.5733 18.1783 19.84 18.445 19.84C18.8183 19.84 19.085 19.5733 19.245 19.04L24.685 3.36C25.3783 1.3867 26.845 0.400002 29.085 0.400002C30.3117 0.400002 31.2983 0.7733 32.045 1.52C32.845 2.2133 33.325 3.1467 33.485 4.32L36.845 30C37.005 31.0667 36.7117 32 35.965 32.8C35.2717 33.6 34.3917 34 33.325 34C32.365 34 31.5383 33.7067 30.845 33.12C30.205 32.48 29.8317 31.68 29.725 30.72L28.525 14C28.4717 13.36 28.2583 13.04 27.885 13.04C27.5117 13.04 27.245 13.3067 27.085 13.84L22.445 26.88C21.6983 28.8533 20.365 29.84 18.445 29.84C17.6983 29.84 16.9517 29.5733 16.205 29.04C15.5117 28.5067 14.9517 27.8133 14.525 26.96L9.885 14C9.725 13.52 9.4583 13.28 9.085 13.28C8.765 13.28 8.5517 13.6 8.445 14.24L7.165 30.72C7.11167 31.68 6.73833 32.48 6.045 33.12C5.35167 33.7067 4.525 34 3.565 34ZM44.0075 34C43.1542 34 42.3275 33.68 41.5275 33.04C40.7808 32.4 40.4075 31.5733 40.4075 30.56C40.4075 30.1333 40.4875 29.68 40.6475 29.2L50.7275 2.88C51.1008 1.92 51.7142 1.2 52.5675 0.720001C53.4208 0.240001 54.3008 0 55.2075 0C56.1675 0 57.0742 0.240001 57.9275 0.720001C58.8342 1.2 59.4742 1.92 59.8475 2.88L70.6475 29.04C70.7542 29.2533 70.8075 29.4667 70.8075 29.68C70.8075 29.8933 70.8075 30.1067 70.8075 30.32C70.8075 31.44 70.4342 32.32 69.6875 32.96C68.9408 33.6 68.1142 33.92 67.2075 33.92C66.5675 33.92 65.9275 33.7333 65.2875 33.36C64.7008 33.04 64.2742 32.5067 64.0075 31.76L61.6875 25.52C61.6342 25.2 61.4208 25.04 61.0475 25.04H50.2475C49.8742 25.04 49.6342 25.2 49.5275 25.52L47.2875 31.84C46.9142 32.5333 46.4342 33.0667 45.8475 33.44C45.2608 33.8133 44.6475 34 44.0075 34ZM53.1275 18.8H57.8475C58.1675 18.8 58.4075 18.6933 58.5675 18.48C58.7808 18.2133 58.8342 17.8933 58.7275 17.52L56.6475 11.84C56.3275 10.9867 55.9275 10.56 55.4475 10.56C54.9675 10.56 54.5675 11.0133 54.2475 11.92L52.2475 17.6C52.1408 17.92 52.1675 18.2133 52.3275 18.48C52.4875 18.6933 52.7542 18.8 53.1275 18.8ZM79.22 34C78.1533 34 77.2733 33.7067 76.58 33.12C75.94 32.48 75.62 31.6533 75.62 30.64V4.64C75.62 3.2533 76.0467 2.2133 76.9 1.52C77.7533 0.7733 78.7133 0.400002 79.78 0.400002C80.5267 0.400002 81.2467 0.586699 81.94 0.959999C82.6333 1.28 83.22 1.8133 83.7 2.56L95.22 19.92C95.4333 20.2933 95.7533 20.48 96.18 20.48C96.7133 20.48 96.98 20.16 96.98 19.52L96.42 3.76C96.3667 2.6933 96.6867 1.8667 97.38 1.28C98.073 0.693303 98.953 0.400002 100.02 0.400002C101.087 0.400002 101.94 0.693303 102.58 1.28C103.273 1.8667 103.62 2.6933 103.62 3.76V29.68C103.62 31.0133 103.193 32.0533 102.34 32.8C101.487 33.5467 100.527 33.92 99.46 33.92C98.767 33.92 98.073 33.7333 97.38 33.36C96.6867 33.04 96.1 32.5067 95.62 31.76L84.18 13.84C83.9667 13.4667 83.6467 13.28 83.22 13.28C82.6333 13.28 82.34 13.6267 82.34 14.32L82.82 30.64C82.8733 31.6533 82.5533 32.48 81.86 33.12C81.1667 33.7067 80.2867 34 79.22 34ZM125.974 34C122.828 34 119.974 33.2533 117.414 31.76C114.908 30.2133 112.908 28.1333 111.414 25.52C109.974 22.9067 109.254 20.0267 109.254 16.88C109.254 13.6267 109.974 10.7467 111.414 8.24C112.908 5.68 114.908 3.68 117.414 2.24C119.921 0.746702 122.774 0 125.974 0C129.174 0 132.001 0.746702 134.454 2.24C136.961 3.68 138.908 5.68 140.294 8.24C141.734 10.7467 142.454 13.6267 142.454 16.88C142.454 20.08 141.734 22.9867 140.294 25.6C138.854 28.16 136.881 30.2133 134.374 31.76C131.921 33.2533 129.121 34 125.974 34ZM125.974 27.6C128.694 27.6 130.908 26.5867 132.614 24.56C134.374 22.5333 135.254 19.9733 135.254 16.88C135.254 13.7867 134.374 11.2533 132.614 9.28C130.908 7.3067 128.694 6.32 125.974 6.32C123.201 6.32 120.908 7.3067 119.094 9.28C117.334 11.2533 116.454 13.7867 116.454 16.88C116.454 19.9733 117.334 22.5333 119.094 24.56C120.908 26.5867 123.201 27.6 125.974 27.6Z" fill="#0034BB"/>
<path d="M138.645 17.2002C138.645 13.3342 135.511 10.2002 131.645 10.2002C127.779 10.2002 124.645 13.3342 124.645 17.2002C124.645 21.0662 127.779 24.2002 131.645 24.2002C135.511 24.2002 138.645 21.0662 138.645 17.2002Z" fill="#0034BB"/>
<path d="M153.735 32.9555C152.681 32.9555 151.718 32.6588 150.845 32.0654C149.972 31.472 149.279 30.7005 148.768 29.751C148.256 28.8016 148 27.7779 148 26.6801C148 26.1757 148.045 25.8197 148.135 25.612C148.256 25.3746 148.437 25.2114 148.677 25.1224L157.709 21.8289C158.311 21.6212 158.717 21.3839 158.928 21.1168C159.138 20.8201 159.244 20.4196 159.244 19.9152V18.58C159.244 17.2745 158.928 16.2063 158.296 15.3755C157.663 14.5447 156.685 14.1293 155.36 14.1293C154.487 14.1293 153.78 14.3222 153.238 14.7079C152.696 15.064 152.425 15.509 152.425 16.0431C152.425 16.2508 152.47 16.4437 152.561 16.6217C152.681 16.7997 152.817 16.9777 152.967 17.1558C153.178 17.4228 153.343 17.7047 153.464 18.0014C153.614 18.2981 153.69 18.6096 153.69 18.936C153.69 19.5888 153.449 20.108 152.967 20.4937C152.516 20.8795 151.929 21.0723 151.206 21.0723C150.453 21.0723 149.866 20.8646 149.445 20.4492C149.024 20.0042 148.813 19.3959 148.813 18.6245C148.813 17.5563 149.189 16.592 149.942 15.7316C150.694 14.8414 151.658 14.1442 152.832 13.6398C154.006 13.1057 155.21 12.8387 156.444 12.8387C157.859 12.8387 159.093 13.0909 160.147 13.5953C161.231 14.07 162.074 14.7673 162.676 15.6871C163.308 16.5772 163.624 17.675 163.624 18.9805V28.5049C163.624 29.0983 163.684 29.6027 163.805 30.0181C163.955 30.4335 164.301 30.6412 164.843 30.6412C165.385 30.6412 166.047 30.5077 166.83 30.2406V31.1752C166.258 31.5313 165.505 31.917 164.572 32.3324C163.669 32.7181 162.871 32.911 162.179 32.911C161.547 32.911 161.035 32.7775 160.644 32.5104C160.252 32.2434 159.966 31.828 159.786 31.2643C159.605 30.7005 159.515 30.0329 159.515 29.2615V28.6384L160.418 29.484C159.786 30.0181 159.093 30.5522 158.341 31.0862C157.588 31.6203 156.82 32.0654 156.038 32.4214C155.255 32.7775 154.487 32.9555 153.735 32.9555ZM155.767 30.5076C156.248 30.5076 156.715 30.4038 157.167 30.1961C157.648 29.9884 158.145 29.7065 158.657 29.3505C159.048 29.0538 159.244 28.579 159.244 27.9263V23.0751C159.244 22.9861 159.214 22.9267 159.154 22.8971C159.093 22.8377 159.018 22.8377 158.928 22.8971L152.877 25.0779C152.696 25.1372 152.561 25.2707 152.47 25.4784C152.41 25.6861 152.38 26.0274 152.38 26.5021C152.38 27.1548 152.546 27.7928 152.877 28.4159C153.208 29.0093 153.629 29.5137 154.141 29.9291C154.683 30.3148 155.225 30.5076 155.767 30.5076Z" fill="black"/>
<path d="M178.33 33C176.133 33 174.311 32.5549 172.866 31.6648C171.421 30.745 170.353 29.5433 169.66 28.0598C168.968 26.5763 168.622 25.0037 168.622 23.3421C168.622 22.0366 168.817 20.7756 169.209 19.5591C169.63 18.3129 170.232 17.1854 171.015 16.1766C171.828 15.1678 172.851 14.3667 174.086 13.7733C175.35 13.1799 176.825 12.8832 178.511 12.8832C179.565 12.8832 180.558 13.0019 181.491 13.2392C182.424 13.4766 183.207 13.7733 183.839 14.1293V5.62865C183.839 5.00556 183.734 4.59017 183.523 4.38247C183.343 4.14511 183.057 3.98192 182.665 3.89291L180.814 3.44784V2.82476C182.259 2.58739 183.584 2.35002 184.788 2.11266C185.992 1.87529 187.181 1.5044 188.355 1L188.807 1.31154C188.566 1.78628 188.4 2.36486 188.31 3.04729C188.25 3.72972 188.22 4.51599 188.22 5.40612V28.7719C188.22 29.7214 188.49 30.389 189.032 30.7747C189.604 31.1307 190.507 31.2939 191.742 31.2643V32.3324C190.568 32.3621 189.439 32.4511 188.355 32.5994C187.301 32.7181 186.188 32.8516 185.013 33L184.607 32.7775L184.246 30.3741H184.065L180.046 32.5104C179.836 32.6291 179.565 32.733 179.233 32.822C178.932 32.9407 178.631 33 178.33 33ZM179.55 30.2851C180.874 30.2851 181.913 29.8846 182.665 29.0834C183.448 28.2823 183.839 27.3477 183.839 26.2796V20.1377C183.839 19.0399 183.599 18.0607 183.117 17.2003C182.665 16.3102 182.063 15.5981 181.311 15.064C180.558 14.5299 179.745 14.2629 178.872 14.2629C177.608 14.2629 176.569 14.6189 175.756 15.331C174.944 16.0431 174.342 16.9629 173.95 18.0904C173.559 19.2179 173.363 20.4344 173.363 21.7399C173.363 23.2531 173.574 24.6625 173.995 25.968C174.447 27.2439 175.124 28.2823 176.027 29.0834C176.961 29.8846 178.135 30.2851 179.55 30.2851Z" fill="black"/>
<path d="M218.589 32.644V31.9318L220.215 31.3978C220.636 31.2791 220.937 31.0862 221.118 30.8192C221.298 30.5225 221.389 30.1664 221.389 29.751V20.2267C221.389 18.8618 221.058 17.8234 220.395 17.1113C219.733 16.3695 218.77 15.9986 217.505 15.9986C216.271 15.9986 215.278 16.4288 214.525 17.2893C213.803 18.1201 213.441 19.1586 213.441 20.4047L212.538 15.9096H213.396C214.179 15.5239 215.067 15.0788 216.06 14.5744C217.054 14.07 217.927 13.5804 218.679 13.1057C218.95 12.9573 219.206 12.8832 219.447 12.8832C221.434 12.8832 222.984 13.4172 224.098 14.4854C225.212 15.5239 225.769 17.0519 225.769 19.0695V29.9736C225.769 30.389 225.889 30.7153 226.13 30.9527C226.371 31.1604 226.657 31.3088 226.988 31.3978L228.614 31.9318V32.644H218.589ZM193.889 32.644V31.9318L195.514 31.3978C195.936 31.2791 196.237 31.0862 196.417 30.8192C196.628 30.5225 196.734 30.1664 196.734 29.751V17.2893C196.734 16.6662 196.628 16.2508 196.417 16.0431C196.237 15.8057 195.951 15.6426 195.559 15.5535L193.889 15.1085V14.4409C194.882 14.2925 195.755 14.1442 196.508 13.9958C197.29 13.8475 198.028 13.6694 198.72 13.4618C199.443 13.2244 200.195 12.9573 200.978 12.6606L201.385 12.9722C201.204 13.3282 201.053 13.803 200.933 14.3964C200.843 14.9898 200.798 15.6129 200.798 16.2656V16.7107L201.114 17.5563V29.9736C201.114 30.389 201.219 30.7153 201.43 30.9527C201.671 31.1604 201.957 31.3088 202.288 31.3978L203.913 31.9318V32.644H193.889ZM206.216 32.644V31.9318L207.842 31.3978C208.293 31.2791 208.61 31.0862 208.79 30.8192C208.971 30.5225 209.061 30.1664 209.061 29.751V20.2267C209.061 18.8618 208.715 17.8234 208.023 17.1113C207.36 16.3695 206.412 15.9986 205.178 15.9986C203.943 15.9986 202.95 16.4288 202.197 17.2893C201.475 18.1201 201.114 19.1586 201.114 20.4047L200.211 15.9096H201.023C201.806 15.5239 202.694 15.0788 203.688 14.5744C204.681 14.07 205.569 13.5804 206.352 13.1057C206.623 12.9573 206.864 12.8832 207.074 12.8832C209.091 12.8832 210.657 13.4172 211.77 14.4854C212.884 15.5239 213.441 17.0519 213.441 19.0695V29.9736C213.441 30.389 213.562 30.7153 213.803 30.9527C214.043 31.1604 214.329 31.3088 214.66 31.3978L216.286 31.9318V32.644H206.216Z" fill="black"/>
<path d="M230.622 32.644V31.9318L232.248 31.3978C233.06 31.1307 233.467 30.5818 233.467 29.751V17.2448C233.467 16.6514 233.362 16.2508 233.151 16.0431C232.97 15.8057 232.684 15.6277 232.293 15.509L230.622 15.1085V14.4409C232.097 14.2035 233.392 13.9662 234.505 13.7288C235.649 13.4914 236.808 13.1354 237.982 12.6606L238.434 12.9722C238.193 13.4172 238.028 13.9958 237.937 14.7079C237.877 15.3904 237.847 16.1766 237.847 17.0668V29.9736C237.847 30.3593 237.967 30.6708 238.208 30.9082C238.449 31.1456 238.705 31.3088 238.976 31.3978L240.602 31.9318V32.644H230.622ZM235.589 8.07649C234.746 8.07649 234.024 7.79462 233.422 7.23088C232.85 6.63746 232.564 5.92536 232.564 5.09458C232.564 4.26379 232.85 3.56653 233.422 3.00278C234.024 2.40936 234.746 2.11266 235.589 2.11266C236.432 2.11266 237.14 2.40936 237.712 3.00278C238.314 3.56653 238.615 4.26379 238.615 5.09458C238.615 5.92536 238.314 6.63746 237.712 7.23088C237.14 7.79462 236.432 8.07649 235.589 8.07649Z" fill="black"/>
<path d="M255.975 32.644V31.9318L257.601 31.3978C258.022 31.2791 258.323 31.0862 258.504 30.8192C258.715 30.5225 258.82 30.1664 258.82 29.751V20.1822C258.82 18.847 258.444 17.8234 257.691 17.1113C256.969 16.3695 255.93 15.9986 254.576 15.9986C253.191 15.9986 252.107 16.4288 251.324 17.2893C250.542 18.1497 250.15 19.2031 250.15 20.4492L249.247 15.9096H250.06C250.903 15.5239 251.806 15.0788 252.769 14.5744C253.733 14.07 254.636 13.5804 255.479 13.1057C255.81 12.9277 256.141 12.8387 256.472 12.8387C258.609 12.8387 260.265 13.3727 261.439 14.4409C262.613 15.509 263.2 17.0519 263.2 19.0695V29.9736C263.2 30.389 263.306 30.7153 263.516 30.9527C263.757 31.1604 264.043 31.3088 264.374 31.3978L266 31.9318V32.644H255.975ZM242.925 32.644V31.9318L244.551 31.3978C244.972 31.2791 245.273 31.0862 245.454 30.8192C245.665 30.5225 245.77 30.1664 245.77 29.751V17.2893C245.77 16.6662 245.665 16.2508 245.454 16.0431C245.273 15.8057 244.987 15.6426 244.596 15.5535L242.925 15.1085V14.4409C243.919 14.2925 244.792 14.1442 245.544 13.9958C246.327 13.8475 247.065 13.6694 247.757 13.4618C248.479 13.2244 249.232 12.9573 250.015 12.6606L250.421 12.9722C250.241 13.3282 250.09 13.803 249.97 14.3964C249.879 14.9898 249.834 15.6129 249.834 16.2656V16.7107L250.15 17.5563V29.9736C250.15 30.389 250.256 30.7153 250.466 30.9527C250.707 31.1604 250.993 31.3088 251.324 31.3978L252.95 31.9318V32.644H242.925Z" fill="black"/>
</svg>
